<svg width="436" height="104" viewBox="0 0 436 104" fill="none" xmlns="http://www.w3.org/2000/svg">
<path d="M25.9062 103.406C37.0156 103.406 44.4688 98.4141 48.4062 91.5938H48.6875V102H60.9219V28.875H48.6875V71.9062C48.6875 84.3516 41.1641 92.5781 29.6328 92.5781C18.3828 92.5781 12.8281 86.0391 12.8281 74.1562V28.875H0.59375V76.3359C0.59375 93 9.875 103.406 25.9062 103.406ZM76.8828 102H89.1172V58.9688C89.1172 46.5234 96.6406 38.2969 108.172 38.2969C119.422 38.2969 124.977 44.8359 124.977 56.7188V102H137.211V54.5391C137.211 37.875 127.93 27.4688 111.898 27.4688C100.789 27.4688 93.3359 32.4609 89.3984 39.2812H89.1172V28.875H76.8828V102ZM176.586 103.406C178.977 103.406 181.578 103.125 183.125 102.914V93C182.07 93.0703 180.664 93.2812 179.188 93.2812C172.648 93.2812 169.203 91.1016 169.203 83.2969V39H183.125V28.875H169.203V9.11719H156.547V28.875H145.859V39H156.547V83.3672C156.547 97.3594 163.156 103.406 176.586 103.406ZM203.164 16.5C207.453 16.5 210.828 13.0547 210.828 8.83594C210.828 4.54688 207.453 1.17188 203.164 1.17188C198.945 1.17188 195.5 4.54688 195.5 8.83594C195.5 13.0547 198.945 16.5 203.164 16.5ZM197.047 102H209.281V28.875H197.047V102ZM249.711 103.406C252.102 103.406 254.703 103.125 256.25 102.914V93C255.195 93.0703 253.789 93.2812 252.312 93.2812C245.773 93.2812 242.328 91.1016 242.328 83.2969V39H256.25V28.875H242.328V9.11719H229.672V28.875H218.984V39H229.672V83.3672C229.672 97.3594 236.281 103.406 249.711 103.406ZM270.031 102H282.266V0.539062H270.031V102ZM328.883 103.406C344.844 103.406 356.797 93.8438 359.188 81.75L359.328 81.0469H347.305L347.094 81.6797C344.984 87.9375 338.445 92.5781 329.164 92.5781C316.156 92.5781 307.859 83.7891 307.578 68.7422H360.242V64.2422C360.242 42.3047 348.078 27.4688 328.109 27.4688C308.141 27.4688 295.203 43.0078 295.203 65.6484V65.7188C295.203 88.7109 307.859 103.406 328.883 103.406ZM328.039 38.2969C338.727 38.2969 346.602 44.9766 347.797 59.1797H307.789C309.125 45.5391 317.422 38.2969 328.039 38.2969ZM400.109 103.406C410.586 103.406 418.742 98.1328 423.312 89.625H423.594V102H435.828V0.539062H423.594V41.1094H423.312C418.742 32.6719 410.234 27.4688 399.898 27.4688C381.547 27.4688 369.031 42.3047 369.031 65.3672V65.4375C369.031 88.5 381.406 103.406 400.109 103.406ZM402.5 92.5781C389.562 92.5781 381.547 82.2422 381.547 65.4375V65.3672C381.547 48.7031 389.562 38.2969 402.5 38.2969C414.805 38.2969 423.664 49.0547 423.664 65.3672V65.4375C423.664 81.8203 414.875 92.5781 402.5 92.5781Z" fill="black"/>
</svg>
